# xmcd
#
# Track frame offsets: 
#        182
#        20490
#        44495
#        63437
#        83110
#        96122
#        127777
#        145097
#        161057
#        178602
#        199730
#        213967
#        225010
#        244520
#        270462
#        293172
#
# Disc length: 4180 seconds
#
# Revision: 3
# Processed by: cddbd v1.5.1PL0 Copyright (c) Steve Scherf et al.
# Submitted via: ExactAudioCopy v0.95a5
#
DISCID=d1105210
DTITLE=Calvin Russell - Le Voyageur
DYEAR=1993
DGENRE=Blues
TTITLE0=Living On The End Of A Gun
TTITLE1=Characters
TTITLE2=My Way
TTITLE3=One Meatball
TTITLE4=A Crack In Time
TTITLE5=Crossroads
TTITLE6=Play With Fire
TTITLE7=You Don't Know
TTITLE8=Should've Been Home With You
TTITLE9=Rockin' The Republicans
TTITLE10=It's Just You
TTITLE11=Down In Texas
TTITLE12=North Austin Slim
TTITLE13=Maybe Someday
TTITLE14=Last Night
TTITLE15=Right On TIme
EXTD=
EXTT0=
EXTT1=
EXTT2=
EXTT3=
EXTT4=
EXTT5=
EXTT6=
EXTT7=
EXTT8=
EXTT9=
EXTT10=
EXTT11=
EXTT12=
EXTT13=
EXTT14=
EXTT15=
PLAYORDER=
